<?xml version="1.0" encoding="UTF-8"?>
<svg width="61px" height="60px" viewBox="0 0 61 60" version="1.1" xmlns="http://www.w3.org/2000/svg" xmlns:xlink="http://www.w3.org/1999/xlink">
    <title>696288F2-B2C6-4BDE-B580-CDA5918CC933</title>
    <g id="NEW-UPDATES" stroke="none" stroke-width="1" fill="none" fill-rule="evenodd">
        <g id="User-profile---profile-overview" transform="translate(-235.000000, -557.000000)">
            <g id="Group-43" transform="translate(205.000000, 504.000000)">
                <g id="Group-32-Copy-3" transform="translate(0.000000, 23.000000)">
                    <g id="Upload-Photos" transform="translate(30.000000, 30.000000)">
                        <path d="M60.0918678,30.0510235 C60.0918678,46.5914297 46.6832975,59.9992513 30.14364,59.9992513 C13.6039825,59.9992513 0.195412186,46.5914297 0.195412186,30.0510235 C0.195412186,13.5106173 13.6039825,0.102795699 30.14364,0.102795699 C46.6832975,0.102795699 60.0918678,13.5106173 60.0918678,30.0510235" id="Fill-1" fill="#E9F1FF"></path>
                        <path d="M44.918673,51.0813429 C44.918673,51.7941107 39.136419,52.3736089 32.0034998,52.3736089 C24.8705806,52.3736089 19.0875779,51.7941107 19.0875779,51.0813429 C19.0875779,50.3685751 24.8705806,49.7898256 32.0034998,49.7898256 C39.136419,49.7898256 44.918673,50.3685751 44.918673,51.0813429" id="Fill-3" fill="#D3E3FF"></path>
                        <path d="M42.5239379,34.8152624 L18.381174,41.1882453 C17.92072,41.3087869 17.4497841,41.0355094 17.3284938,40.5743067 L10.9128347,16.2653301 C10.7907957,15.8048761 11.0655707,15.3339403 11.525276,15.2126499 L34.8354791,9.06128395 C35.2951844,8.93849622 35.766869,9.21401991 35.8881593,9.6729765 L42.5239379,34.8152624 Z" id="Fill-5" fill="#FFFFFF"></path>
                        <path d="M42.5239379,34.8152624 L18.381174,41.1882453 C17.92072,41.3087869 17.4497841,41.0355094 17.3284938,40.5743067 L10.9128347,16.2653301 C10.7907957,15.8048761 11.0655707,15.3339403 11.525276,15.2126499 L34.8354791,9.06128395 C35.2951844,8.93849622 35.766869,9.21401991 35.8881593,9.6729765 L42.5239379,34.8152624 Z" id="Stroke-7" stroke="#2172FF" stroke-linejoin="round"></path>
                        <path d="M37.9450785,29.6131055 L19.7957037,34.4018272 C19.3367471,34.5238662 18.8650625,34.2490912 18.7437722,33.7893859 L14.7007614,18.4716161 C14.5794711,18.0119108 14.8534974,17.5409749 15.3139514,17.4189359 L32.6300167,12.8488363 C33.089722,12.7267973 33.5606579,13.0015723 33.6819482,13.4620263 L37.9450785,29.6131055 Z" id="Fill-9" fill="#D3E3FF"></path>
                        <path d="M37.9450785,29.6131055 L19.7957037,34.4018272 C19.3367471,34.5238662 18.8650625,34.2490912 18.7437722,33.7893859 L14.7007614,18.4716161 C14.5794711,18.0119108 14.8534974,17.5409749 15.3139514,17.4189359 L32.6300167,12.8488363 C33.089722,12.7267973 33.5606579,13.0015723 33.6819482,13.4620263 L37.9450785,29.6131055 Z" id="Stroke-11" stroke="#2172FF" stroke-linejoin="round"></path>
                        <path d="M45.0744038,45.003949 L20.74072,45.003949 C20.3274345,45.003949 19.9920143,44.6685289 19.9920143,44.2552433 L19.9920143,18.8890944 C19.9920143,18.4750601 20.3274345,18.1403887 20.74072,18.1403887 L45.0744038,18.1403887 C45.4876894,18.1403887 45.8231095,18.4750601 45.8231095,18.8890944 L45.8231095,44.2552433 C45.8231095,44.6685289 45.4876894,45.003949 45.0744038,45.003949" id="Fill-13" fill="#FFFFFF"></path>
                        <path d="M45.0744038,45.003949 L20.74072,45.003949 C20.3274345,45.003949 19.9920143,44.6685289 19.9920143,44.2552433 L19.9920143,18.8890944 C19.9920143,18.4750601 20.3274345,18.1403887 20.74072,18.1403887 L45.0744038,18.1403887 C45.4876894,18.1403887 45.8231095,18.4750601 45.8231095,18.8890944 L45.8231095,44.2552433 C45.8231095,44.6685289 45.4876894,45.003949 45.0744038,45.003949 Z" id="Stroke-15" stroke="#2172FF" stroke-linejoin="round"></path>
                        <path d="M41.9744628,38.80519 L23.8400621,38.80519 C23.4267766,38.80519 23.0913564,38.4697698 23.0913564,38.0564843 L23.0913564,21.9885114 C23.0913564,21.5744771 23.4267766,21.2398057 23.8400621,21.2398057 L41.9744628,21.2398057 C42.3877483,21.2398057 42.7231685,21.5744771 42.7231685,21.9885114 L42.7231685,38.0564843 C42.7231685,38.4697698 42.3877483,38.80519 41.9744628,38.80519" id="Fill-17" fill="#D3E3FF"></path>
                        <path d="M41.9744628,38.80519 L23.8400621,38.80519 C23.4267766,38.80519 23.0913564,38.4697698 23.0913564,38.0564843 L23.0913564,21.9885114 C23.0913564,21.5744771 23.4267766,21.2398057 23.8400621,21.2398057 L41.9744628,21.2398057 C42.3877483,21.2398057 42.7231685,21.5744771 42.7231685,21.9885114 L42.7231685,38.0564843 C42.7231685,38.4697698 42.3877483,38.80519 41.9744628,38.80519 Z" id="Stroke-19" stroke="#2172FF" stroke-linejoin="round"></path>
                        <path d="M27.2246611,24.5980502 L27.2254098,24.5980502 C28.2241832,24.5980502 29.0335341,25.4066523 29.0335341,26.4054257" id="Stroke-21" stroke="#2172FF" stroke-linecap="round" stroke-linejoin="round"></path>
                        <path d="M30.842407,24.5980502 L30.8416583,24.5980502 C29.8428849,24.5980502 29.0335341,25.4066523 29.0335341,26.4054257" id="Stroke-23" stroke="#2172FF" stroke-linecap="round" stroke-linejoin="round"></path>
                        <path d="M25.6729685,28.2136249 L25.6744659,28.2136249 C26.6724906,28.2136249 27.4818415,29.0229757 27.4818415,30.0224978" id="Stroke-25" stroke="#2172FF" stroke-linecap="round" stroke-linejoin="round"></path>
                        <path d="M29.2910888,28.2136249 L29.2903401,28.2136249 C28.2915667,28.2136249 27.4822159,29.0229757 27.4822159,30.0224978" id="Stroke-27" stroke="#2172FF" stroke-linecap="round" stroke-linejoin="round"></path>
                        <path d="M40.6569654,38.80519 C40.6569654,38.80519 36.2635603,34.7037802 35.5792433,31.3645528 C35.4811629,30.8846324 35.0581442,30.5387304 34.5684906,30.5387304 L30.2222541,30.5387304 C29.7243648,30.5387304 29.2998487,30.8928682 29.2077579,31.381773 C28.5825886,34.7172569 24.6414018,38.80519 24.6414018,38.80519 L40.6569654,38.80519 Z" id="Fill-29" fill="#FFFFFF"></path>
                        <path d="M40.6569654,38.80519 C40.6569654,38.80519 36.2635603,34.7037802 35.5792433,31.3645528 C35.4811629,30.8846324 35.0581442,30.5387304 34.5684906,30.5387304 L30.2222541,30.5387304 C29.7243648,30.5387304 29.2998487,30.8928682 29.2077579,31.381773 C28.5825886,34.7172569 24.6414018,38.80519 24.6414018,38.80519 L40.6569654,38.80519 Z" id="Stroke-31" stroke="#2172FF" stroke-linejoin="round"></path>
                        <path d="M31.0994377,30.5387304 C30.6097841,30.5387304 30.1628068,30.8150028 29.9441848,31.2522469 C29.7255627,31.6902397 29.7727312,32.213585 30.0662238,32.6059068 L30.3245273,32.9495627 C30.8119347,33.600188 31.5778606,33.9827766 32.390955,33.9827766 C33.2040494,33.9827766 33.9692266,33.600188 34.4573827,32.9495627 L34.7156862,32.6059068 C35.0091788,32.213585 35.0563473,31.6902397 34.8369765,31.2522469 C34.6183544,30.8150028 34.1713771,30.5387304 33.6824723,30.5387304 L31.0994377,30.5387304 Z" id="Fill-33" fill="#FFFFFF"></path>
                        <path d="M31.0994377,30.5387304 C30.6097841,30.5387304 30.1628068,30.8150028 29.9441848,31.2522469 C29.7255627,31.6902397 29.7727312,32.213585 30.0662238,32.6059068 L30.3245273,32.9495627 C30.8119347,33.600188 31.5778606,33.9827766 32.390955,33.9827766 C33.2040494,33.9827766 33.9692266,33.600188 34.4573827,32.9495627 L34.7156862,32.6059068 C35.0091788,32.213585 35.0563473,31.6902397 34.8369765,31.2522469 C34.6183544,30.8150028 34.1713771,30.5387304 33.6824723,30.5387304 L31.0994377,30.5387304 Z" id="Stroke-35" stroke="#2172FF" stroke-linejoin="round"></path>
                        <path d="M39.3653732,25.889268 C39.3653732,27.0302955 38.4399729,27.9556957 37.2989454,27.9556957 C36.1571693,27.9556957 35.231769,27.0302955 35.231769,25.889268 C35.231769,24.7482405 36.1571693,23.8228403 37.2989454,23.8228403 C38.4399729,23.8228403 39.3653732,24.7482405 39.3653732,25.889268" id="Fill-37" fill="#FFFFFF"></path>
                        <path d="M39.3653732,25.889268 C39.3653732,27.0302955 38.4399729,27.9556957 37.2989454,27.9556957 C36.1571693,27.9556957 35.231769,27.0302955 35.231769,25.889268 C35.231769,24.7482405 36.1571693,23.8228403 37.2989454,23.8228403 C38.4399729,23.8228403 39.3653732,24.7482405 39.3653732,25.889268 Z" id="Stroke-39" stroke="#2172FF" stroke-linejoin="round"></path>
                    </g>
                </g>
            </g>
        </g>
    </g>
</svg>